<?xml version="1.0" standalone="no"?>
<!DOCTYPE svg PUBLIC "-//W3C//DTD SVG 20010904//EN"
 "http://www.w3.org/TR/2001/REC-SVG-20010904/DTD/svg10.dtd">
<svg version="1.0" xmlns="http://www.w3.org/2000/svg"
 width="800.000000pt" height="800.000000pt" viewBox="0 0 800.000000 800.000000"
 preserveAspectRatio="xMidYMid meet">
<metadata>
Created by potrace 1.14, written by Peter Selinger 2001-2017
</metadata>
<g transform="translate(0.000000,800.000000) scale(0.100000,-0.100000)"
fill="#000000" stroke="none">
<path d="M0 4000 l0 -4000 4000 0 4000 0 0 4000 0 4000 -4000 0 -4000 0 0
-4000z m3138 3035 c182 -27 358 -89 499 -176 72 -44 223 -158 223 -169 0 -3
-17 -27 -38 -55 -55 -72 -71 -71 -195 12 -141 95 -179 116 -277 151 -158 55
-235 67 -455 67 -218 0 -296 -11 -450 -64 -471 -164 -768 -590 -803 -1153 -50
-785 332 -1349 992 -1464 114 -20 422 -14 531 11 222 50 317 99 573 298 19 15
41 27 49 27 7 0 35 -24 63 -52 57 -62 61 -52 -60 -152 -219 -182 -441 -278
-729 -315 -119 -16 -354 -14 -469 4 -712 107 -1172 699 -1172 1510 0 693 344
1233 921 1445 168 62 320 87 537 89 97 1 201 -5 260 -14z m2205 -87 c2 -7 269
-659 592 -1448 323 -789 591 -1445 596 -1458 l9 -23 -102 3 c-94 3 -102 5
-119 28 -11 14 -97 216 -192 450 l-172 425 -725 3 -725 2 -164 -407 c-185
-459 -193 -478 -221 -493 -11 -6 -59 -9 -109 -8 l-90 3 510 1245 c280 685 550
1345 600 1468 l92 222 107 0 c77 0 109 -4 113 -12z m-3563 -3789 l0 -681 148
4 c114 3 154 7 178 20 18 10 314 307 658 661 344 354 639 650 654 657 15 7 74
15 131 18 l105 5 -25 -30 c-66 -83 -1306 -1343 -1344 -1368 -25 -15 -45 -29
-45 -31 0 -2 16 -10 35 -18 39 -17 17 5 858 -871 l594 -620 -105 -3 c-96 -2
-108 -1 -137 20 -18 13 -323 321 -680 685 -475 486 -659 668 -691 684 -38 18
-64 21 -187 22 l-142 2 -3 -707 -2 -708 -105 0 -105 0 0 1470 0 1470 105 0
105 0 0 -681z"/>
<path d="M5193 6642 c-18 -53 -165 -423 -327 -822 l-294 -725 329 -3 c181 -1
477 -1 658 0 l329 3 -314 775 c-172 426 -319 796 -325 823 -7 26 -15 47 -18
47 -3 -1 -21 -44 -38 -98z"/>
</g>
</svg>
